<?xml version="1.0" encoding="utf-8"?>
<svg width="1792" height="1792" viewBox="0 0 1792 1792" fill="none" xmlns="http://www.w3.org/2000/svg">
<path d="M1507 941L765 1683C752.333 1695.67 737.333 1702 720 1702C702.667 1702 687.667 1695.67 675 1683L509 1517C496.333 1504.33 490 1489.33 490 1472C490 1454.67 496.333 1439.67 509 1427L1040 896L509 365C496.333 352.333 490 337.333 490 320C490 302.667 496.333 287.667 509 275L675 109C687.667 96.3333 702.667 90 720 90C737.333 90 752.333 96.3333 765 109L1507 851C1519.67 863.667 1526 878.667 1526 896C1526 913.333 1519.67 928.333 1507 941Z" fill="black"/>
</svg>
