<?xml version="1.0" encoding="utf-8"?>
<svg width="1792" height="1792" viewBox="0 0 1792 1792" fill="none" xmlns="http://www.w3.org/2000/svg">
<path d="M1283 365L752 896L1283 1427C1295.67 1439.67 1302 1454.67 1302 1472C1302 1489.33 1295.67 1504.33 1283 1517L1117 1683C1104.33 1695.67 1089.33 1702 1072 1702C1054.67 1702 1039.67 1695.67 1027 1683L285 941C272.333 928.333 266 913.333 266 896C266 878.667 272.333 863.667 285 851L1027 109C1039.67 96.3333 1054.67 90 1072 90C1089.33 90 1104.33 96.3333 1117 109L1283 275C1295.67 287.667 1302 302.667 1302 320C1302 337.333 1295.67 352.333 1283 365Z" fill="black"/>
</svg>
